<?xml version="1.0" encoding="UTF-8" standalone="no"?>
<!-- Generator: Adobe Illustrator 16.0.0, SVG Export Plug-In . SVG Version: 6.00 Build 0)  -->

<svg
   version="1.0"
   id="Layer_1"
   x="0px"
   y="0px"
   viewBox="0 0 322.793 379.84"
   enable-background="new 0 0 322.793 379.84"
   xml:space="preserve"
   sodipodi:docname="logo_afc_green.svg"
   inkscape:version="1.3.1 (91b66b0783, 2023-11-16)"
   inkscape:export-filename="logo_afc_green.png"
   inkscape:export-xdpi="96"
   inkscape:export-ydpi="96"
   xmlns:inkscape="http://www.inkscape.org/namespaces/inkscape"
   xmlns:sodipodi="http://sodipodi.sourceforge.net/DTD/sodipodi-0.dtd"
   xmlns="http://www.w3.org/2000/svg"
   xmlns:svg="http://www.w3.org/2000/svg"><defs
   id="defs44" /><sodipodi:namedview
   id="namedview44"
   pagecolor="#ffffff"
   bordercolor="#666666"
   borderopacity="1.0"
   inkscape:showpageshadow="2"
   inkscape:pageopacity="0.0"
   inkscape:pagecheckerboard="0"
   inkscape:deskcolor="#d1d1d1"
   inkscape:zoom="1.4142136"
   inkscape:cx="150.9673"
   inkscape:cy="230.16326"
   inkscape:window-width="1920"
   inkscape:window-height="1027"
   inkscape:window-x="-8"
   inkscape:window-y="22"
   inkscape:window-maximized="1"
   inkscape:current-layer="g44" />
<g
   id="g44"
   style="fill-rule:evenodd"
   sodipodi:insensitive="true">
	<path
   fill="#9C824A"
   stroke-width="0.793"
   stroke-miterlimit="282"
   d="M 161.396,0.396 C 122.96,0.396 52.087,10.34 15.994,31.328 -31.526,199.803 33.101,314.37 161.396,379.396 289.692,314.37 354.319,199.236 306.798,31.329 270.669,10.34 199.831,0.396 161.396,0.396 Z"
   id="path1"
   style="fill:#002b11;fill-opacity:1;fill-rule:evenodd;stroke:#1a1a1a;stroke-opacity:1"
   stroke="#9C824A" />
	<path
   fill="#023474"
   stroke-width="0.793"
   stroke-miterlimit="282"
   d="m 161.396,11.228 c -37.761,0 -80.278,4.83 -135.962,27.558 C -16.018,185.847 32.071,303.717 161.396,367.96 290.721,303.717 338.774,185.846 297.322,38.786 241.638,16.058 199.157,11.228 161.396,11.228 Z"
   id="path2"
   style="fill:#103c22;fill-opacity:0.94;fill-rule:evenodd" />
	<path
   fill="#ffffff"
   stroke="#ffffff"
   stroke-width="0.793"
   stroke-miterlimit="282"
   d="M 161.219,11.086 C 123.635,11.086 83.283,16.661 46.87,30.441 9.109,181.018 36.969,290.967 161.432,367.854 L 161.219,11.086 Z m 0.213,356.768 C 285.894,290.967 313.719,181.018 275.957,30.441 239.545,16.661 199.228,11.086 161.645,11.086 l -0.213,356.768 z"
   id="path3"
   style="fill-rule:evenodd" />
	<path
   fill="#EF0107"
   stroke-width="0.793"
   stroke-miterlimit="282"
   d="m 161.432,11.051 c -19.3048,0 -38.72987,1.491366 -57.25859,4.393757 C 86.424624,18.224976 69.498305,22.299929 54.288,27.599 15.178,185.421 46.586,291.996 161.467,364.834 Z"
   id="path4"
   style="fill:#207944;fill-opacity:0.94;fill-rule:evenodd;stroke:#333333;stroke-width:1.093;stroke-dasharray:none;stroke-opacity:1"
   sodipodi:nodetypes="csccc"
   stroke="#ef0107" />
	<path
   fill="#DB0007"
   stroke-width="0.793"
   stroke-miterlimit="282"
   d="m 161.48347,11.051 c 37.796,0 76.055,5.717 107.179,16.548 39.11,157.822 7.701,264.397 -107.214,337.235 z"
   id="path5"
   style="fill:#15512d;fill-opacity:0.94;fill-rule:evenodd;stroke:#262626;stroke-width:1.093;stroke-dasharray:none;stroke-opacity:1"
   stroke="#db0007" />
	<path
   fill="#ffffff"
   d="m 112.598,249.203 c -16.68,11.437 -29.953,15.556 -45.356,19.64 l -9.298,-14.454 c 14.161,-7.173 28.818,-17.153 43.582,-31.606 1.242,14.026 7.771,23.969 11.072,26.42 z"
   id="path6"
   style="fill-rule:evenodd" />
	<path
   fill="#9C824A"
   d="m 110.326,248.6 c -15.828,10.866 -37.868,18.431 -63.101,22.124 l -5.146,-7.812 c 21.613,-8.099 42.481,-20.172 58.665,-37.147 2.449,10.866 6.175,18.076 9.582,22.835 z"
   id="path7"
   style="fill:#002b11;fill-opacity:1;fill-rule:evenodd" />
	<path
   fill="#ffffff"
   d="m 68.165,182.225 c 0,6.073 -4.897,10.974 -10.966,10.974 -6.069,0 -11.002,-4.901 -11.002,-10.974 v 0 c 0,-6.073 4.933,-10.973 11.002,-10.973 6.069,0 10.966,4.9 10.966,10.973 z"
   id="path8"
   style="fill-rule:evenodd" />
	<path
   fill="#ffffff"
   d="m 66.993,160.597 v 41.409 h 32.615 c 2.129,-13.886 10.008,-28.624 27.859,-41.409 H 66.993"
   id="path9"
   style="fill-rule:evenodd" />
	<path
   fill="#ffffff"
   d="m 68.307,202.006 c -7.276,0.106 -13.273,-9.021 -13.38,-20.456 -0.071,-11.436 5.75,-20.811 13.061,-20.953 0.071,0 0.142,0 0.249,0"
   id="path10"
   style="fill-rule:evenodd" />
	<path
   fill="#9C824A"
   d="m 63.551,182.225 c 0,4.688 -3.407,8.453 -7.595,8.453 -4.188,0 -7.595,-3.764 -7.595,-8.453 v 0 c 0,-4.688 3.407,-8.452 7.595,-8.452 4.188,-0.001 7.595,3.764 7.595,8.452 z"
   id="path11"
   style="fill:#002b11;fill-opacity:1;fill-rule:evenodd" />
	<path
   fill="#9C824A"
   d="m 67.881,162.764 v 37.217 h 32.367 c 2.555,-12.358 8.837,-25.498 24.523,-37.217 h -56.89"
   id="path12"
   style="fill:#002b11;fill-opacity:1;fill-rule:evenodd" />
	<path
   fill="#9C824A"
   d="m 69.087,199.981 c -6.85,0.143 -12.457,-8.096 -12.563,-18.36 -0.071,-10.263 5.43,-18.716 12.279,-18.857 0.071,0 0.142,0 0.213,0"
   id="path13"
   style="fill:#002b11;fill-opacity:1;fill-rule:evenodd" />
	<path
   fill="#ffffff"
   d="m 223.325,211.701 c 0,34.556 -27.965,62.539 -62.497,62.539 -34.496,0 -62.497,-27.983 -62.497,-62.539 v 0 c 0,-34.554 28.001,-62.539 62.497,-62.539 34.532,0 62.497,27.985 62.497,62.539 v 0 z"
   id="path14"
   style="fill-rule:evenodd" />
	<path
   fill="#9C824A"
   d="m 220.062,211.701 c 0,32.744 -26.512,59.271 -59.233,59.271 -32.686,0 -59.197,-26.527 -59.197,-59.271 v 0 c 0,-32.707 26.511,-59.271 59.197,-59.271 32.721,-0.001 59.233,26.528 59.233,59.271 v 0 z"
   id="path15"
   style="fill:#002b11;fill-opacity:1;fill-rule:evenodd" />
	<path
   fill="#ffffff"
   d="m 210.23,211.701 c 0,27.31 -22.111,49.436 -49.402,49.436 -27.256,0 -49.366,-22.126 -49.366,-49.436 v 0 c 0,-27.31 22.11,-49.435 49.366,-49.435 27.291,0 49.402,22.125 49.402,49.435 v 0 z"
   id="path16"
   style="fill-rule:evenodd" />
	<path
   fill="#9C824A"
   d="m 206.966,211.701 c 0,25.498 -20.656,46.132 -46.138,46.132 -25.446,0 -46.101,-20.634 -46.101,-46.132 v 0 c 0,-25.498 20.655,-46.131 46.101,-46.131 25.482,-0.001 46.138,20.633 46.138,46.131 v 0 z"
   id="path17"
   style="fill:#002b11;fill-opacity:1;fill-rule:evenodd" />
	<path
   fill="#ffffff"
   d="m 180.063,211.701 c 0.036,10.619 -8.588,19.249 -19.2,19.284 -10.646,0 -19.271,-8.629 -19.271,-19.248 v -0.036 c 0,-10.619 8.589,-19.248 19.235,-19.248 10.611,-0.035 19.235,8.595 19.235,19.213 10e-4,0.035 10e-4,0.035 10e-4,0.035 z"
   id="path18"
   style="fill-rule:evenodd" />
	<path
   fill="#9C824A"
   d="m 177.793,211.701 c 0,9.377 -7.561,16.976 -16.929,16.976 -9.369,0 -16.964,-7.563 -17,-16.939 v -0.036 c 0,-9.375 7.595,-16.976 16.964,-16.976 9.369,0 16.965,7.565 16.965,16.94 v 0.035 z"
   id="path19"
   style="fill:#002b11;fill-opacity:1;fill-rule:evenodd" />
	<path
   fill="#ffffff"
   d="m 169.559,211.701 c 0,4.794 -3.904,8.7 -8.73,8.735 -4.791,0 -8.695,-3.905 -8.695,-8.735 v 0 c 0,-4.829 3.904,-8.7 8.695,-8.735 4.825,-0.001 8.73,3.906 8.73,8.735 v 0 z"
   id="path20"
   style="fill-rule:evenodd" />
	<path
   fill="#9C824A"
   d="m 167.146,211.701 c 0,3.48 -2.804,6.321 -6.317,6.321 -3.478,0 -6.317,-2.806 -6.317,-6.321 v 0 c 0,-3.479 2.839,-6.32 6.317,-6.32 3.477,-0.001 6.317,2.804 6.317,6.32 v 0 z"
   id="path21"
   style="fill:#002b11;fill-opacity:1;fill-rule:evenodd" />
	<rect
   x="154.192"
   y="164.504"
   fill="#ffffff"
   width="13.131"
   height="30.646999"
   id="rect21"
   style="fill-rule:evenodd" />
	<rect
   x="156.25"
   y="160.10001"
   fill="#9C824A"
   width="9.0489998"
   height="38.958"
   id="rect22"
   style="fill:#002b11;fill-opacity:1;fill-rule:evenodd" />
	<polygon
   fill="#ffffff"
   points="204.587,192.807 178.893,209.5 171.76,198.49 197.418,181.798 "
   id="polygon22"
   style="fill-rule:evenodd" />
	<polygon
   fill="#9C824A"
   points="207.143,188.724 174.492,209.961 169.559,202.326 202.21,181.124 "
   id="polygon23"
   style="fill:#002b11;fill-opacity:1;fill-rule:evenodd" />
	<polygon
   fill="#ffffff"
   points="149.436,225.267 123.564,241.675 116.537,230.559 142.409,214.187 "
   id="polygon24"
   style="fill-rule:evenodd" />
	<polygon
   fill="#9C824A"
   points="151.672,221.219 118.809,242.065 113.946,234.394 146.81,213.548 "
   id="polygon25"
   style="fill:#002b11;fill-opacity:1;fill-rule:evenodd" />
	<rect
   x="154.192"
   y="229.28101"
   fill="#ffffff"
   width="13.131"
   height="30.646"
   id="rect25"
   style="fill-rule:evenodd" />
	<rect
   x="156.25"
   y="224.91299"
   fill="#9C824A"
   width="9.0489998"
   height="38.922001"
   id="rect26"
   style="fill:#002b11;fill-opacity:1;fill-rule:evenodd" />
	<path
   fill="#EF0107"
   stroke-width="0.3115"
   stroke-miterlimit="282"
   d="m 148.017,226.013 c 1.775,1.491 3.726,2.841 6.175,3.871 l -0.071,27.345 c -12.386,-1.598 -21.755,-7.706 -28.853,-16.406 l 22.785,-14.81"
   id="path26"
   style="fill:#207944;fill-opacity:0.94;fill-rule:evenodd;stroke:#333333;stroke-opacity:1"
   stroke="#EF0107" />
	<path
   fill="#DB0007"
   stroke-width="0.3115"
   stroke-miterlimit="282"
   d="m 173.604,226.12 c -1.81,1.456 -3.727,2.841 -6.175,3.835 l 0.035,27.346 c 12.386,-1.598 21.756,-7.706 28.854,-16.407 l -22.749,-14.773"
   id="path27"
   style="fill:#15512d;fill-opacity:0.94;fill-rule:evenodd;stroke:#333333;stroke-opacity:1"
   stroke="#DB0007" />
	<path
   fill="#DB0007"
   d="m 179.815,214.649 27.114,-3.268 c 0.213,6.782 -1.42,12.749 -3.727,18.467 l -23.459,-15.199"
   id="path28"
   style="fill:#15512d;fill-opacity:0.94;fill-rule:evenodd" />
	<path
   fill="#ffffff"
   stroke="#ffffff"
   stroke-width="0.3115"
   stroke-miterlimit="282"
   d="m 179.851,214.542 c 0.106,-0.426 0.071,-0.816 0.249,-2.059 l 26.76,-3.48 c 0.106,1.243 0.035,1.704 0,2.272 l -27.009,3.267 z"
   id="path29"
   style="fill-rule:evenodd" />
	<path
   fill="#ffffff"
   d="m 219.458,191.992 h 35.1 c -1.101,4.154 -2.166,8.38 -7.206,10.263 -8.056,3.02 -24.771,5.931 -24.771,5.931 -0.32,-4.582 -1.349,-10.798 -3.123,-16.194 z"
   id="path30"
   style="fill-rule:evenodd" />
	<path
   fill="#ffffff"
   d="m 195.006,159.994 91.705,0.106 -3.229,33.524 -62.64,3.268 c -3.372,-14.987 -14.765,-29.298 -25.836,-36.898 z"
   id="path31"
   style="fill-rule:evenodd" />
	<path
   fill="#9C824A"
   d="m 198.27,162.373 117.081,0.106 -4.472,27.311 -90.854,4.475 C 216.44,180.698 208.243,170.79 198.27,162.373 Z"
   id="path32"
   style="fill:#002b11;fill-opacity:1;fill-rule:evenodd" />
	<path
   fill="#9C824A"
   d="m 219.458,191.992 h 32.33 c -1.064,3.692 -1.81,7.066 -6.565,8.735 -7.559,2.699 -22.784,4.83 -22.784,4.83 -0.639,-4.438 -1.562,-8.949 -2.981,-13.565 z"
   id="path33"
   style="fill:#002b11;fill-opacity:1;fill-rule:evenodd" />
	<path
   fill="#9C824A"
   d="m 183.968,111.305 c 0,1.492 -0.319,5.576 -0.496,6.712 h 18.171 c -1.102,-4.831 -1.599,-11.542 -1.74,-16.727 0,0.355 -0.319,-10.406 -0.319,-10.406 0,-0.746 0.319,-1.882 0.78,-2.237 0.64,-0.746 1.279,-0.746 2.06,-0.746 0.78,-0.355 2.2,-0.355 2.377,2.593 l 0.462,11.151 c 0.177,5.22 0.177,12.288 -0.462,16.372 h 17.497 c -0.143,-1.492 -0.639,-5.221 -0.781,-6.322 2.2,4.83 6.956,7.422 13.273,7.422 3.762,0 6.636,-1.457 8.837,-2.948 0,0.355 0.923,1.848 0.923,1.848 h 32.509 c -1.42,-4.831 -2.343,-11.542 -2.839,-16.727 L 269.641,64.853 252.925,61.87 c 1.421,4.83 2.379,11.897 2.981,16.727 l 2.555,23.439 c 0.462,4.084 0.782,8.559 0.782,13.388 v 0.355 l -0.64,-1.492 c -1.277,-2.983 -1.881,-6.676 -2.378,-12.252 l -0.603,-7.458 c -0.958,-11.897 -7.417,-17.083 -21.649,-17.083 -2.342,0 -8.34,0.355 -11.995,1.492 l 0.958,13.353 3.798,-2.202 c 3.159,-1.882 5.501,-2.628 8.339,-2.628 2.237,0 3.656,0.747 4.295,2.238 -2.696,0.39 -5.679,1.136 -9.014,2.592 -5.04,2.237 -8.199,5.61 -9.618,9.304 v -0.355 L 220.239,89 c -0.283,-7.813 -5.358,-12.998 -13.096,-12.998 -3.442,0 -6.602,1.101 -9.44,2.983 -0.177,-0.391 -0.319,-0.747 -0.497,-1.137 l -0.639,-1.492 -14.516,-0.746 c 0.639,2.628 1.598,10.051 1.74,12.644 -0.782,-3.694 -2.84,-7.778 -6.638,-10.761 -2.98,-1.882 -6.778,-2.983 -10.717,-2.983 -5.36,0 -10.896,2.237 -14.516,5.966 -3.797,3.693 -5.679,8.914 -5.856,14.845 -1.419,-1.492 -3.3,-2.948 -5.501,-3.693 l -6.637,-3.374 h -0.319 c -1.561,-0.747 -1.739,-1.102 -1.739,-1.457 0.178,-0.746 1.739,-1.492 3.798,-1.492 2.839,0 6.779,1.492 9.937,3.339 l 0.319,-11.897 C 143.544,75.61 140.244,74.9 135.488,74.9 c -2.52,0 -7.24,0.355 -11.357,2.592 -1.101,0.746 -2.059,1.492 -2.981,2.238 l 0.142,-3.375 c -3.797,-0.71 -7.879,-0.71 -12.919,4.12 -0.177,-0.391 -0.497,-2.238 -0.816,-2.983 l -15.615,0.746 c 1.1,4.44 1.277,10.761 0.958,16.337 l -0.319,5.966 v 0.746 c -0.178,2.983 -0.319,6.321 -0.639,9.304 -1.278,-4.12 -2.662,-9.695 -3.798,-14.134 L 80.408,61.512 58.333,64.85 c 0.142,0.355 0.461,1.492 0.639,2.592 0.143,1.492 0.143,4.475 -1.916,10.796 -3.62,10.016 -8.66,25.286 -13.557,36.046 -0.639,1.492 -1.916,3.729 -1.916,3.729 h 17.212 c 0.32,-2.593 1.42,-7.067 2.52,-10.406 2.378,0 8.518,0 11.356,-0.391 0.639,2.628 1.278,5.966 1.456,8.203 l 0.284,2.593 h 34.425 c -0.781,-5.576 -0.462,-12.999 -0.177,-17.118 0.319,-4.83 1.277,-8.168 3.336,-10.015 1.561,-1.882 3.3,-2.237 4.578,-2.237 -0.177,6.676 4.082,9.66 7.879,11.506 l 6.778,3.373 c 2.378,1.492 2.378,1.847 2.378,2.593 -0.142,1.101 -2.059,1.492 -3.797,1.492 -3.62,0 -8.518,-2.238 -13.877,-8.168 l -0.319,15.59 c 4.259,2.237 9.618,3.338 14.374,3.338 7.879,0 16.254,-3.694 18.455,-10.761 3.939,7.422 11.676,10.761 19.271,10.761 6.777,0.006 11.816,-2.197 16.253,-7.061 z M 65.432,96.069 c 0.958,-2.592 1.738,-4.83 3.158,-8.914 0.958,4.084 1.419,6.677 1.881,8.559 -1.881,0.355 -2.839,0.355 -5.039,0.355 z m 96.603,-4.084 c 0,-5.185 1.881,-7.422 3.763,-7.422 0.639,0 2.058,-0.391 2.696,2.237 0.319,1.101 0.461,1.847 0.461,2.202 0,1.492 -0.78,1.882 -1.738,1.882 v 0.355 c 0,0 -2.662,0.746 -5.182,1.882 0,-0.39 0,-0.745 0,-1.136 z m 17.993,10.796 c -3.337,2.948 -5.714,4.83 -9.653,4.83 -3.158,-0.391 -5.04,-2.238 -6.14,-4.83 3.301,-1.136 16.077,-5.966 19.732,-7.458 0,2.983 0.143,6.321 0.143,6.321 v 6.322 l -4.082,-5.185 z m 58.842,5.186 c -2.98,0 -3.62,-2.238 -3.762,-3.694 0.142,-1.492 0.603,-3.729 5.358,-5.22 0.143,1.847 0.319,3.338 0.319,3.338 v 1.491 c 0.143,1.136 0.143,2.237 0.284,3.338 -0.602,0.391 -1.382,0.391 -2.199,0.747"
   id="path34"
   style="fill:#002b11;fill-opacity:1;fill-rule:evenodd" />
	<path
   fill="#ffffff"
   d="m 143.225,78.597 c -1.561,-0.355 -3.939,-1.101 -7.736,-1.101 -2.981,0 -6.921,0.746 -9.938,2.238 -3.478,2.237 -5.998,5.185 -6.14,8.559 -0.319,5.185 2.378,7.422 6.317,9.269 2.662,1.492 5.217,2.983 6.779,3.729 2.058,1.101 3.939,2.237 3.797,4.83 -0.177,2.593 -2.555,4.475 -6.494,4.475 -3.301,0 -8.021,-2.237 -11.357,-5.221 l -0.142,7.813 c 2.839,1.492 7.417,2.237 11.676,2.237 7.24,0 16.254,-3.338 16.396,-11.542 0.177,-6.321 -4.258,-8.559 -6.92,-10.015 -2.697,-1.136 -5.395,-2.627 -6.636,-2.983 -1.278,-0.746 -3.798,-1.491 -3.62,-4.475 0.284,-2.592 3.301,-3.729 6.459,-3.729 2.662,0 5.359,0.746 7.417,1.882"
   id="path35"
   style="fill-rule:evenodd" />
	<path
   fill="#ffffff"
   d="M 78.385,64.853 61.634,67.09 c 0.32,2.238 -0.319,6.677 -2.058,11.897 -3.442,10.015 -9.121,26.741 -13.558,36.436 h 10.435 c 0.603,-3.373 1.384,-6.321 2.981,-10.405 l 15.474,-0.391 c 0.603,2.983 1.739,7.813 1.881,10.796 H 90.843 C 89.104,111.304 86.904,102.78 85.485,96.814 l -7.1,-31.961 z M 61.634,98.662 69.229,76.75 73.808,98.307"
   id="path36"
   style="fill-rule:evenodd" />
	<path
   fill="#ffffff"
   d="m 118.454,78.597 -0.319,7.458 c -2.52,-0.39 -5.678,0.355 -8.198,2.948 -2.201,2.237 -3.62,5.576 -3.939,11.542 -0.32,4.83 -0.462,10.406 -0.178,14.88 H 94.001 c 0.781,-4.474 1.101,-9.66 1.242,-14.524 l 0.319,-5.931 c 0.319,-4.83 0.319,-9.66 -0.461,-14.134 l 10.434,-0.355 c 0.462,1.492 0.781,4.084 0.604,6.676 4.578,-7.069 9.014,-8.56 12.315,-8.56"
   id="path37"
   style="fill-rule:evenodd" />
	<path
   fill="#ffffff"
   d="m 267.298,67.09 -10.754,-1.882 c 1.101,4.866 1.42,8.204 2.059,13.033 l 2.521,23.404 c 0.496,4.83 0.958,9.305 0.815,13.779 h 11.677 c -1.136,-4.474 -1.597,-8.949 -2.059,-13.779"
   id="path38"
   style="fill-rule:evenodd" />
	<path
   fill="#ffffff"
   d="m 219.139,115.424 c -0.604,-4.474 -0.924,-8.949 -1.102,-13.779 l -0.461,-12.252 c -0.319,-6.712 -4.116,-10.405 -10.434,-10.405 -3.442,0 -7.56,1.101 -11.037,5.575 -0.142,-1.136 -0.639,-4.084 -1.277,-5.575 l -9.44,-0.391 c 0.78,4.475 1.1,8.914 1.241,13.744 l 0.178,9.304 c 0.142,4.83 0,9.305 -0.319,13.779 h 11.818 c -0.604,-4.474 -0.923,-8.949 -1.101,-13.779 L 196.886,91.24 c -0.142,-3.729 2.697,-6.322 5.537,-6.322 3.3,0 4.897,2.237 5.04,5.576 l 0.496,11.151 c 0.143,4.83 0.143,9.305 -0.177,13.779"
   id="path39"
   style="fill-rule:evenodd" />
	<path
   fill="#ffffff"
   d="m 256.083,115.424 c -1.419,-3.729 -2.2,-8.203 -2.52,-13.033 l -0.64,-7.423 c -0.639,-8.914 -4.399,-14.88 -18.951,-14.88 -2.52,0 -6.14,0.391 -9.12,1.101 l 0.461,6.712 c 2.98,-1.847 5.998,-3.338 9.795,-3.338 3.939,0 7.24,1.847 7.56,7.422 -3.798,0.391 -7.276,1.101 -11.215,2.983 -4.4,1.847 -8.979,5.576 -8.518,11.506 0.461,6.712 5.536,9.695 11.854,9.695 4.897,0 8.198,-2.237 10.079,-4.474 0.319,1.491 0.816,2.592 1.277,3.729 h 9.938 v 0 z m -17.213,-4.83 c -3.479,0 -6.316,-1.882 -6.459,-5.966 0,-4.084 2.52,-7.422 10.576,-8.559 l 0.462,6.322 c 0.177,2.237 0.177,3.729 0.496,5.576 -1.134,1.491 -3.016,2.237 -5.075,2.627"
   id="path40"
   style="fill-rule:evenodd" />
	<path
   fill="#ffffff"
   d="m 175.592,79.733 c -2.696,-1.882 -5.855,-2.628 -9.155,-2.628 -7.737,0 -17.994,5.576 -17.675,19.71 0.142,14.49 11.215,18.964 18.952,18.964 6.778,0 10.896,-2.593 14.195,-5.931 l -2.378,-3.374 c -1.738,1.492 -4.578,3.729 -9.156,3.729 -4.898,-0.355 -8.021,-3.729 -9.76,-8.914 l 21.436,-7.813 c -0.639,-7.066 -3.158,-11.15 -6.459,-13.743 z m -7.417,13.744 -8.518,3.338 c -0.177,-1.491 -0.319,-2.983 -0.319,-4.83 0,-8.559 4.72,-10.05 6.316,-10.05 2.521,-0.355 4.721,1.136 5.536,4.119 0.924,3.339 0.605,6.322 -3.015,7.423"
   id="path41"
   style="fill-rule:evenodd" />
	<polygon
   fill="#ffffff"
   points="124.877,179.313 150.501,196.075 143.296,207.084 117.673,190.287 "
   id="polygon41"
   style="fill-rule:evenodd" />
	<polygon
   fill="#9C824A"
   points="120.264,178.922 152.808,200.265 147.839,207.866 115.295,186.522 "
   id="polygon42"
   style="fill:#002b11;fill-opacity:1;fill-rule:evenodd" />
	<polygon
   fill="#ffffff"
   points="179.567,214.222 205.19,231.02 197.986,242.03 172.363,225.232 "
   id="polygon43"
   style="fill-rule:evenodd" />
	<polygon
   fill="#9C824A"
   points="174.953,213.868 207.498,235.211 202.529,242.776 169.984,221.467 "
   id="polygon44"
   style="fill:#002b11;fill-opacity:1;fill-rule:evenodd" />
</g>
</svg>
